<svg width="150" height="39" viewBox="0 0 150 39" fill="none" xmlns="http://www.w3.org/2000/svg">
<path d="M50.7127 27.9759C49.5442 27.9759 48.4109 27.8211 47.3128 27.5113C46.2288 27.1875 45.3559 26.7722 44.6942 26.2654L45.8557 23.6891C46.4892 24.1537 47.2424 24.5267 48.1153 24.8083C48.9881 25.0899 49.861 25.2306 50.7338 25.2306C51.7052 25.2306 52.4232 25.0899 52.8878 24.8083C53.3524 24.5126 53.5847 24.1255 53.5847 23.6468C53.5847 23.2949 53.4439 23.0063 53.1623 22.781C52.8949 22.5417 52.5429 22.3516 52.1065 22.2108C51.6841 22.0701 51.1069 21.9152 50.3748 21.7463C49.2486 21.4788 48.3264 21.2113 47.6084 20.9438C46.8904 20.6763 46.271 20.2469 45.7501 19.6556C45.2433 19.0643 44.9899 18.2759 44.9899 17.2905C44.9899 16.4317 45.2222 15.6574 45.6867 14.9675C46.1513 14.2636 46.8482 13.7075 47.7774 13.2992C48.7206 12.891 49.868 12.6868 51.2195 12.6868C52.1628 12.6868 53.0849 12.7995 53.9859 13.0247C54.8869 13.25 55.6753 13.5738 56.3511 13.9961L55.2952 16.5936C53.9296 15.8193 52.564 15.4321 51.1984 15.4321C50.2411 15.4321 49.5301 15.587 49.0655 15.8967C48.615 16.2064 48.3898 16.6147 48.3898 17.1215C48.3898 17.6283 48.6502 18.0084 49.1711 18.2619C49.7061 18.5012 50.5156 18.7405 51.5996 18.9799C52.7259 19.2473 53.6481 19.5148 54.366 19.7823C55.084 20.0498 55.6965 20.4722 56.2033 21.0494C56.7242 21.6266 56.9846 22.4079 56.9846 23.3934C56.9846 24.2381 56.7453 25.0124 56.2666 25.7163C55.802 26.4062 55.0981 26.9552 54.1549 27.3635C53.2116 27.7718 52.0642 27.9759 50.7127 27.9759Z" fill="white"/>
<path d="M62.1781 15.7278H57.4477V12.9402H70.3294V15.7278H65.5991V27.7225H62.1781V15.7278Z" fill="white"/>
<path d="M81.1629 24.5549H74.2997L72.9904 27.7225H69.4849L76.0736 12.9402H79.4524L86.0622 27.7225H82.4722L81.1629 24.5549ZM80.0859 21.9574L77.7418 16.2979L75.3978 21.9574H80.0859Z" fill="white"/>
<path d="M97.0142 27.7225L94.1634 23.6046H93.9944H91.0169V27.7225H87.5958V12.9402H93.9944C95.3037 12.9402 96.437 13.1585 97.3944 13.5949C98.3658 14.0313 99.1119 14.6508 99.6328 15.4532C100.154 16.2557 100.414 17.206 100.414 18.3041C100.414 19.4022 100.147 20.3525 99.6117 21.155C99.0908 21.9433 98.3446 22.5487 97.3732 22.9711L100.689 27.7225H97.0142ZM96.9509 18.3041C96.9509 17.4735 96.6834 16.8399 96.1484 16.4035C95.6134 15.953 94.8321 15.7278 93.8044 15.7278H91.0169V20.8804H93.8044C94.8321 20.8804 95.6134 20.6552 96.1484 20.2047C96.6834 19.7542 96.9509 19.1206 96.9509 18.3041Z" fill="white"/>
<path d="M105.342 14.2918V20.0991H112.987V21.4506H105.342V27.7225H103.779V12.9402H113.916V14.2918H105.342Z" fill="white"/>
<path d="M117.143 12.9402H118.705V26.371H126.983V27.7225H117.143V12.9402Z" fill="white"/>
<path d="M129.578 12.9402H131.141V27.7225H129.578V12.9402Z" fill="white"/>
<path d="M145.221 27.7225L140.449 21.2183L135.697 27.7225H133.902L139.519 20.1202L134.261 12.9402H136.056L140.512 18.9799L144.947 12.9402H146.636L141.399 20.078L147.037 27.7225H145.221Z" fill="white"/>
<path d="M11.2298 4.90585C11.2892 2.17562 14.8076 1.11653 16.3643 3.36029L20.0668 8.69694C20.763 9.70038 22.0261 10.1414 23.1956 9.7894L29.4152 7.91724C32.0301 7.1301 34.1246 10.1491 32.4717 12.3229L28.5404 17.4933C27.8012 18.4655 27.7721 19.8031 28.4683 20.8065L32.1708 26.1432C33.7274 28.3869 31.5035 31.3118 28.9253 30.4116L22.7931 28.2704C21.6401 27.8678 20.3589 28.2534 19.6197 29.2256L15.6884 34.396C14.0355 36.5699 10.5665 35.3586 10.626 32.6284L10.7674 26.1346C10.794 24.9137 10.0314 23.8144 8.87834 23.4118L2.74616 21.2706C0.167929 20.3704 0.247934 16.6969 2.86291 15.9097L9.0825 14.0376C10.252 13.6856 11.0617 12.6206 11.0883 11.3996L11.2298 4.90585Z" fill="#FFC700"/>
<path d="M22.5165 17.3988C23.0332 17.5643 23.177 18.227 22.7754 18.5918L17.4837 23.3973C17.0821 23.762 16.4363 23.5552 16.3212 23.025L14.8053 16.0395C14.6903 15.5094 15.1923 15.0534 15.709 15.2189L22.5165 17.3988Z" fill="#222222"/>
</svg>
