<svg width="23" height="22" viewBox="0 0 23 22" fill="none" xmlns="http://www.w3.org/2000/svg">
<path fill-rule="evenodd" clip-rule="evenodd" d="M11.4729 1.65963C6.53121 1.65963 2.51093 5.67991 2.51093 10.6216C2.51093 15.5633 6.53121 19.5836 11.4729 19.5836C16.4146 19.5836 20.4349 15.5633 20.4349 10.6216C20.4349 5.67991 16.4146 1.65963 11.4729 1.65963ZM11.4729 17.5921C7.62962 17.5921 4.50244 14.4649 4.50244 10.6216C4.50244 6.77839 7.62962 3.6512 11.4729 3.6512C15.3161 3.6512 18.4433 6.77839 18.4433 10.6216C18.4433 14.4649 15.3161 17.5921 11.4729 17.5921ZM10.5877 9.73651V6.19597H12.358V9.73651H15.8986V11.5068H12.358V15.0473H10.5877V11.5068H7.0472V9.73651H10.5877Z" fill="white"/>
</svg>
